<?xml version="1.0" standalone="no"?>
<!DOCTYPE svg PUBLIC "-//W3C//DTD SVG 1.1//EN" "http://www.w3.org/Graphics/SVG/1.1/DTD/svg11.dtd" >
<!--
2013-9-30: Created.
-->
<svg>
<metadata>
Created by iconfont
</metadata>
<defs>

<font id="iconfont" horiz-adv-x="1024" >
  <font-face
    font-family="iconfont"
    font-weight="500"
    font-stretch="normal"
    units-per-em="1024"
    ascent="896"
    descent="-128"
  />
    <missing-glyph />
    
    <glyph glyph-name="attribute" unicode="&#59074;" d="M512 476.8c-32 0-59.2-27.2-59.2-59.2v-297.6c0-32 24-59.2 59.2-59.2 32 0 59.2 27.2 59.2 59.2V419.2c-4.8 30.4-27.2 57.6-59.2 57.6z m0 228.8c-38.4 0-70.4-32-70.4-70.4s32-70.4 70.4-70.4 70.4 32 70.4 70.4-32 70.4-70.4 70.4zM512 896C230.4 896 0 665.6 0 384s230.4-512 512-512 512 230.4 512 512S793.6 896 512 896z m0-960C264-64 64 136 64 384S264 832 512 832s448-200 448-448-200-448-448-448z"  horiz-adv-x="1024" />

    
    <glyph glyph-name="delete" unicode="&#59075;" d="M815.231008-13.693023c0-28.576744-23.813953-52.390698-52.390698-52.390698H261.15969c-28.576744 0-52.390698 23.813953-52.390698 52.390698V681.674419H813.643411c1.587597 0 1.587597-695.367442 1.587597-695.367442zM313.550388 821.382946c0 6.350388 4.762791 11.113178 11.113178 11.113178h376.260465c6.350388 0 11.113178-4.762791 11.113178-11.113178v-79.379845H313.550388v79.379845z m657.265116-77.792248H773.953488v79.379845c0 39.689922-33.339535 73.029457-73.029457 73.029457H324.663566c-39.689922 0-73.029457-33.339535-73.029457-73.029457v-79.379845H53.184496c-17.463566 0-31.751938-14.288372-31.751938-31.751938s14.288372-31.751938 31.751938-31.751938H146.852713V-13.693023c0-63.503876 50.803101-114.306977 114.306977-114.306977h501.68062c63.503876 0 114.306977 50.803101 114.306977 114.306977V681.674419h93.668217c17.463566 0 31.751938 14.288372 31.751938 31.751938s-14.288372 30.164341-31.751938 30.164341zM512 45.048062c17.463566 0 31.751938 14.288372 31.751938 31.751938v444.527132c0 17.463566-14.288372 31.751938-31.751938 31.751938s-31.751938-14.288372-31.751938-31.751938v-444.527132c0-19.051163 14.288372-31.751938 31.751938-31.751938m-177.810853 0c17.463566 0 31.751938 14.288372 31.751938 31.751938v444.527132c0 17.463566-14.288372 31.751938-31.751938 31.751938s-31.751938-14.288372-31.751938-31.751938v-444.527132c1.587597-19.051163 15.875969-31.751938 31.751938-31.751938m355.621706 0c17.463566 0 31.751938 14.288372 31.751938 31.751938v444.527132c0 17.463566-14.288372 31.751938-31.751938 31.751938s-31.751938-14.288372-31.751938-31.751938v-444.527132c0-19.051163 14.288372-31.751938 31.751938-31.751938"  horiz-adv-x="1024" />

    
    <glyph glyph-name="cycle" unicode="&#59076;" d="M985.6 134.4V635.2v3.2c0 14.4-8 28.8-22.4 35.2L534.4 889.6c-11.2 4.8-24 4.8-33.6 0L64 675.2c-8-3.2-14.4-9.6-17.6-16-6.4-8-9.6-16-9.6-25.6v-499.2c0-16 9.6-30.4 24-36.8 3.2-1.6 6.4-3.2 8-4.8l430.4-214.4c4.8-3.2 11.2-3.2 17.6-3.2 6.4 0 11.2 1.6 17.6 4.8l430.4 214.4c14.4 6.4 24 24 20.8 40z m-508.8-156.8L115.2 158.4V577.6l358.4-176 3.2-424zM859.2 640L516.8 468.8 169.6 640 516.8 809.6 859.2 640z"  horiz-adv-x="1024" />

    
    <glyph glyph-name="measure" unicode="&#59078;" d="M841.6 675.2v-585.6h115.2L803.2-64l-153.6 153.6h115.2V675.2h-115.2l153.6 153.6 153.6-153.6h-115.2zM444.8 832v-896h-352V832h352m0 64h-352c-35.2 0-64-28.8-64-64v-896c0-35.2 28.8-64 64-64h352c35.2 0 64 28.8 64 64V832c0 35.2-28.8 64-64 64zM316.8 704h-224c-17.6 0-32-14.4-32-32s14.4-32 32-32h224c17.6 0 32 14.4 32 32s-14.4 32-32 32zM316.8 512h-224c-17.6 0-32-14.4-32-32s14.4-32 32-32h224c17.6 0 32 14.4 32 32s-14.4 32-32 32zM316.8 320h-224c-17.6 0-32-14.4-32-32s14.4-32 32-32h224c17.6 0 32 14.4 32 32s-14.4 32-32 32zM316.8 128h-224c-17.6 0-32-14.4-32-32s14.4-32 32-32h224c17.6 0 32 14.4 32 32s-14.4 32-32 32zM963.2 832h-320c-17.6 0-32 14.4-32 32s14.4 32 32 32h320c17.6 0 32-14.4 32-32s-14.4-32-32-32zM963.2-128h-320c-17.6 0-32 14.4-32 32s14.4 32 32 32h320c17.6 0 32-14.4 32-32s-14.4-32-32-32z"  horiz-adv-x="1024" />

    
    <glyph glyph-name="piue" unicode="&#59080;" d="M1024 68.8v56l-1.6 510.4v59.2h-1.6L758.4 896l-1.6-1.6V896H190.4V835.2L192 64h832v4.8z m-96 625.6H758.4V819.2L928 694.4zM252.8 124.8l-1.6 710.4H720h-22.4l1.6-171.2v-30.4h264l1.6-510.4-712 1.6zM752 480h-128v128h-64v-128h-128v-64h128v-128h64v128h128zM192 640H0v-768h64V576h128zM768 64v-192H0v64h704v128z"  horiz-adv-x="1024" />

    
    <glyph glyph-name="location" unicode="&#59081;" d="M512 576c59.2 0 105.6-48 105.6-105.6 0-59.2-48-105.6-105.6-105.6-59.2 0-105.6 48-105.6 105.6 0 27.2 11.2 54.4 30.4 75.2 19.2 19.2 46.4 30.4 75.2 30.4m0 64c-94.4 0-171.2-76.8-171.2-171.2S417.6 297.6 512 297.6s171.2 76.8 171.2 171.2c0 44.8-17.6 88-49.6 120-32 33.6-76.8 51.2-121.6 51.2zM804.8 771.2c-156.8 161.6-414.4 166.4-576 9.6l-9.6-9.6c-161.6-166.4-161.6-432 0-600L512-128l292.8 300.8c161.6 166.4 161.6 432 0 598.4z m-43.2-556.8L512-41.6l-249.6 256c-137.6 142.4-137.6 366.4 0 508.8 132.8 137.6 353.6 140.8 491.2 8l8-8c137.6-142.4 137.6-366.4 0-508.8z"  horiz-adv-x="1024" />

    
    <glyph glyph-name="split" unicode="&#59082;" d="M368 832v-304H64V832h304m64 64H0v-432h432V896zM1024 896H592v-432h432V896zM368 240v-304H64V240h304m64 64H0v-432h432V304zM960 240v-304H656V240h304m64 64H592v-432h432V304z"  horiz-adv-x="1024" />

    
    <glyph glyph-name="senior" unicode="&#59083;" d="M65.6 830.4H896v-232h64V896H0v-958.4h304v64H65.6zM1012.8-59.2L840 112l-3.2 3.2c46.4 59.2 75.2 132.8 75.2 212.8C912 518.4 758.4 672 568 672S224 518.4 224 328 377.6-16 568-16c80 0 155.2 28.8 212.8 75.2l3.2-3.2 171.2-171.2c16-16 41.6-16 56 0 16 14.4 16 40 1.6 56zM568 48C414.4 48 288 174.4 288 328S414.4 608 568 608 848 481.6 848 328 721.6 48 568 48z"  horiz-adv-x="1024" />

    
    <glyph glyph-name="position" unicode="&#59084;" d="M1020.8-75.2L920 208c-14.4 33.6-25.6 48-65.6 48h-65.6v-49.6h72L960-70.4H68.8l96 276.8h76.8V256h-72c-36.8 0-51.2-6.4-65.6-48L3.2-75.2c-3.2-12.8-1.6-25.6 6.4-35.2 8-9.6 19.2-16 35.2-16h937.6c14.4 0 27.2 4.8 35.2 16 4.8 9.6 6.4 22.4 3.2 35.2zM512 632c48 0 86.4-38.4 86.4-86.4 0-48-38.4-86.4-86.4-86.4-48 0-86.4 38.4-86.4 86.4 0 22.4 9.6 44.8 25.6 60.8s36.8 25.6 60.8 25.6m0 51.2c-76.8 0-139.2-62.4-139.2-139.2 0-76.8 62.4-139.2 139.2-139.2 76.8 0 139.2 62.4 139.2 139.2 0 36.8-14.4 72-41.6 99.2-25.6 25.6-60.8 41.6-97.6 40zM750.4 792C624 923.2 412.8 928 281.6 800l-8-8c-131.2-136-131.2-353.6 0-489.6L512 57.6l238.4 244.8c132.8 136 132.8 352 0 489.6zM715.2 336L512 128 308.8 336c-112 115.2-112 299.2 0 414.4 108.8 112 288 115.2 400 6.4l6.4-6.4c112-113.6 112-297.6 0-414.4z"  horiz-adv-x="1024" />

    
    <glyph glyph-name="tool" unicode="&#59077;" d="M875.2 702.4h-102.4V808c0 46.4-38.4 83.2-86.4 83.2H337.6c-48 0-86.4-36.8-86.4-83.2v-105.6H148.8c-83.2 0-148.8-64-148.8-144v-539.2c0-78.4 67.2-144 148.8-144h726.4c83.2 0 148.8 64 148.8 144V558.4c0 80-67.2 144-148.8 144zM329.6 808c0 3.2 3.2 6.4 8 6.4h348.8c3.2 0 8-3.2 8-6.4V704H329.6V808zM78.4 560c0 36.8 32 67.2 70.4 67.2h726.4c38.4 0 70.4-30.4 70.4-67.2v-184h-137.6v65.6c0 28.8-24 52.8-56 52.8h-118.4c-30.4 0-56-24-56-52.8v-65.6h-144v65.6c0 28.8-24 52.8-56 52.8h-118.4c-30.4 0-56-24-56-52.8v-65.6H78.4V560z m651.2-142.4v-160h-72v160h72z m-374.4 0v-160h-70.4v160h70.4z m590.4-396.8c0-36.8-32-67.2-70.4-67.2H150.4C112-46.4 80-16 80 20.8V299.2h126.4v-65.6c0-28.8 24-52.8 56-52.8h118.4c30.4 0 56 24 56 52.8v65.6h144v-65.6c0-28.8 24-52.8 56-52.8h118.4c30.4 0 56 24 56 52.8v65.6h137.6l-3.2-278.4z"  horiz-adv-x="1024" />

    
    <glyph glyph-name="catalog" unicode="&#59085;" d="M954.479668 247.413417H863.421946v124.605304c0 19.170047-15.975039 35.145086-36.74259 35.145086H548.713678v115.02028H639.7714c38.340094 0 68.692668 28.75507 68.692668 65.49766V830.50234C708.464068 867.24493 678.111494 896 639.7714 896H384.170776c-38.340094 0-68.692668-28.75507-68.692668-65.49766v-244.418097c0-35.145086 30.352574-65.49766 68.692668-65.49766h91.057722v-115.02028H197.26282c-20.767551 0-36.74259-15.975039-36.74259-35.145086v-124.605304H69.462508c-38.340094 0-68.692668-28.75507-68.692668-65.49766v-244.418097C0.76984-97.647426 31.122414-126.402496 69.462508-126.402496h255.600624c38.340094 0 68.692668 28.75507 68.692667 65.49766V181.915757c0 35.145086-30.352574 65.49766-68.692667 65.49766h-91.057723V336.873635h554.333854v-89.460218h-91.057723c-38.340094 0-68.692668-28.75507-68.692667-65.49766V-62.50234c0-35.145086 30.352574-65.49766 68.692667-65.49766h255.600624c38.340094 0 68.692668 28.75507 68.692668 65.49766V181.915757c1.597504 36.74259-28.75507 65.49766-67.095164 65.49766z m-878.627145-303.525741V177.123245H320.27062v-233.235569H75.852523zM948.089653 177.123245v-233.235569H703.671556V177.123245h244.418097z"  horiz-adv-x="1024" />

    
    <glyph glyph-name="retract" unicode="&#59079;" d="M856 374.4L508.8 72c-9.6-8-12.8-19.2-12.8-30.4s4.8-20.8 12.8-30.4c9.6-9.6 22.4-11.2 32-11.2s22.4 1.6 30.4 11.2l380.8 332.8c8 8 12.8 19.2 12.8 30.4s-4.8 20.8-12.8 30.4L571.2 737.6c-9.6 6.4-20.8 11.2-30.4 11.2-11.2 0-22.4-4.8-32-11.2-8-8-12.8-19.2-12.8-30.4s4.8-20.8 12.8-30.4l347.2-302.4zM420.8 393.6L72 91.2c-8-8-12.8-19.2-12.8-30.4s4.8-20.8 12.8-30.4c9.6-9.6 22.4-11.2 32-11.2s22.4 1.6 30.4 11.2l380.8 332.8c8 8 12.8 19.2 12.8 30.4s-4.8 20.8-12.8 30.4L134.4 756.8C126.4 763.2 115.2 768 104 768s-22.4-4.8-32-11.2c-8-9.6-12.8-20.8-12.8-30.4 0-11.2 4.8-20.8 12.8-30.4l348.8-302.4z"  horiz-adv-x="1024" />

    
    <glyph glyph-name="open" unicode="&#59086;" d="M168 393.6l347.2 302.4c8 8 12.8 19.2 12.8 30.4s-4.8 20.8-12.8 30.4c-9.6 9.6-22.4 11.2-32 11.2s-22.4-1.6-30.4-11.2L72 424c-8-8-12.8-19.2-12.8-30.4s4.8-20.8 12.8-30.4l380.8-332.8c9.6-6.4 20.8-11.2 30.4-11.2 11.2 0 22.4 4.8 32 11.2 8 8 12.8 19.2 12.8 30.4s-4.8 20.8-12.8 30.4L168 393.6zM603.2 374.4l347.2 302.4c8 8 12.8 19.2 12.8 30.4s-4.8 20.8-12.8 30.4c-9.6 9.6-22.4 11.2-32 11.2s-22.4-1.6-30.4-11.2L508.8 404.8c-8-8-12.8-19.2-12.8-30.4s4.8-20.8 12.8-30.4l380.8-332.8c9.6-6.4 20.8-11.2 30.4-11.2 11.2 0 22.4 4.8 32 11.2 8 8 12.8 19.2 12.8 30.4s-4.8 20.8-12.8 30.4L603.2 374.4z"  horiz-adv-x="1024" />

    
    <glyph glyph-name="back" unicode="&#59088;" d="M896 361.6H358.4c-19.2 0-32 12.8-32 32s16 32 32 32H896l-96 96c-12.8 12.8-12.8 32 0 44.8 12.8 12.8 32 12.8 44.8 0l150.4-147.2c6.4-3.2 9.6-12.8 12.8-19.2 3.2-12.8-3.2-25.6-12.8-32l-147.2-147.2c-12.8-12.8-32-12.8-44.8 0-12.8 12.8-12.8 32 0 44.8l92.8 96z m-102.4-438.4H220.8c-92.8 0-169.6 76.8-169.6 166.4V678.4c0 92.8 76.8 166.4 169.6 166.4h572.8c92.8 0 169.6-76.8 169.6-166.4v-67.2c0-19.2-16-32-32-32-19.2 0-32 12.8-32 32V678.4c0 57.6-48 102.4-105.6 102.4H220.8C163.2 780.8 115.2 736 115.2 678.4v-588.8c0-57.6 48-102.4 105.6-102.4h572.8c57.6 0 105.6 44.8 105.6 102.4v89.6c0 19.2 16 32 32 32 19.2 0 32-16 32-32v-89.6c3.2-92.8-73.6-166.4-169.6-166.4z"  horiz-adv-x="1059" />

    
    <glyph glyph-name="atlas" unicode="&#59089;" d="M715.68 896H355.648a115.904 115.904 0 0 1-115.776-115.776v-626.336a115.904 115.904 0 0 1 115.776-115.744H812.16a115.904 115.904 0 0 1 115.776 115.744V658.752L715.68 896z m16.992-218.144V784.352l95.328-106.496h-95.328zM301.6 780.224c0 29.824 24.288 54.048 54.048 54.048h315.328v-218.176h195.232v-462.208a54.08 54.08 0 0 0-54.016-54.016H355.648a54.112 54.112 0 0 0-54.048 54.016V780.224zM184.288 690.72h63.328a31.264 31.264 0 0 0 0.384-62.464H184.288A41.344 41.344 0 0 1 143.68 587.584v-612.448a41.376 41.376 0 0 1 40.64-40.672h512.448a41.472 41.472 0 0 1 40.64 40.672V50.88a31.296 31.296 0 0 0 62.496 0v-75.712A104.096 104.096 0 0 0 696.736-128H184.288a104.064 104.064 0 0 0-103.136 103.168V584.512a104.704 104.704 0 0 0 103.136 106.208z"  horiz-adv-x="1024" />

    
    <glyph glyph-name="ation" unicode="&#59090;" d="M1011.2 281.6c-3.2-28.8-22.4-48-44.8-48H960c-73.6 0-134.4-60.8-134.4-134.4 0-25.6 9.6-51.2 9.6-51.2 9.6-25.6 3.2-57.6-19.2-73.6h-3.2l-128-73.6h-3.2c-6.4-3.2-16-3.2-25.6-3.2-19.2 0-38.4 9.6-48 19.2-16 19.2-67.2 64-105.6 64-38.4 0-89.6-44.8-105.6-60.8-9.6-12.8-28.8-19.2-48-19.2-9.6 0-19.2 3.2-25.6 3.2H320l-124.8 70.4h3.2c-22.4 16-32 48-19.2 73.6 0 0 9.6 25.6 9.6 51.2 0 73.6-60.8 134.4-134.4 134.4-19.2 0-38.4 16-44.8 48 3.2 3.2-9.6 57.6-9.6 102.4s9.6 99.2 9.6 102.4c3.2 28.8 22.4 48 44.8 48h3.2C134.4 534.4 192 595.2 192 668.8c0 25.6-9.6 51.2-9.6 51.2-12.8 22.4-3.2 54.4 19.2 70.4h3.2L339.2 864h3.2c3.2 3.2 9.6 6.4 19.2 6.4 19.2 0 35.2-6.4 48-19.2 16-16 64-60.8 105.6-60.8 38.4 0 89.6 41.6 105.6 57.6 9.6 12.8 28.8 19.2 48 19.2 9.6 0 19.2-3.2 25.6-3.2h3.2l128-70.4h3.2c22.4-16 32-48 19.2-73.6 0 0-9.6-25.6-9.6-51.2 0-73.6 60.8-134.4 134.4-134.4h3.2c19.2 0 38.4-19.2 44.8-48 0-3.2 9.6-57.6 9.6-102.4-9.6-44.8-19.2-99.2-19.2-102.4z m-67.2 188.8c-3.2 6.4-3.2 9.6-3.2 9.6-92.8 0-166.4 73.6-166.4 169.6 0 28.8 9.6 57.6 16 64 3.2 6.4 0 16-3.2 19.2l-118.4 64h-6.4c-6.4 0-12.8-3.2-16-6.4-9.6-3.2-70.4-67.2-134.4-67.2s-124.8 64-131.2 70.4c-3.2 6.4-9.6 9.6-16 9.6h-6.4L240 736c-3.2-6.4-6.4-12.8-3.2-19.2 0 0 16-32 16-64 0-92.8-76.8-169.6-166.4-169.6-3.2-3.2-3.2-6.4-3.2-9.6 0 0-9.6-51.2-9.6-86.4 0-38.4 9.6-86.4 9.6-86.4 3.2-6.4 3.2-9.6 3.2-9.6 92.8 0 166.4-73.6 166.4-169.6 0-25.6-9.6-54.4-16-64-3.2-6.4 0-16 3.2-19.2l115.2-64h6.4c6.4 0 12.8 3.2 16 6.4 3.2 3.2 67.2 73.6 131.2 73.6s124.8-67.2 131.2-73.6c3.2-3.2 9.6-6.4 16-6.4h6.4l118.4 67.2c3.2 3.2 6.4 12.8 3.2 19.2-3.2 3.2-16 32-16 64 0 92.8 76.8 169.6 166.4 169.6 3.2 3.2 3.2 6.4 3.2 9.6 0 0 9.6 51.2 9.6 86.4 3.2 32-3.2 80-3.2 80zM512 179.2c-112 0-204.8 92.8-204.8 204.8s92.8 204.8 204.8 204.8 204.8-92.8 204.8-204.8-92.8-204.8-204.8-204.8z m0 345.6c-76.8 0-140.8-60.8-140.8-140.8s64-140.8 140.8-140.8c80 0 140.8 60.8 140.8 140.8 0 80-64 140.8-140.8 140.8z"  horiz-adv-x="1030" />

    
    <glyph glyph-name="file" unicode="&#59091;" d="M1023.744 514.08a32.128 32.128 0 0 1-31.904 29.184h-96.224V660.672a32 32 0 0 1-32 31.84h-465.6L312.32 787.296a30.848 30.848 0 0 1-12.32 8.352A32.608 32.608 0 0 1 288 798.016H32a32 32 0 0 1-32-31.872v-764.32a32 32 0 0 1 32-31.808h783.072a32 32 0 0 1 31.456 21.504l175.808 508.032c1.6 4.896 2.048 9.792 1.408 14.528zM208 543.264h-1.696c-13.184-0.096-25.6-8.384-30.08-21.504L64.032 197.408V734.336h210.08l85.632-94.656a31.584 31.584 0 0 1 17.984-9.952c2.304-0.64 4.8-0.896 7.296-0.896h446.72v-85.568H208z"  horiz-adv-x="1024" />

    
    <glyph glyph-name="diagram" unicode="&#59092;" d="M518.4 390.4c-6.4 0-9.6 0-12.8 3.2L60.8 611.2c-16 9.6-22.4 28.8-16 48 3.2 6.4 9.6 9.6 16 12.8L502.4 889.6c9.6 6.4 19.2 6.4 28.8 0L966.4 672c16-9.6 22.4-28.8 16-48-3.2-6.4-9.6-12.8-16-16l-435.2-217.6h-12.8zM153.6 643.2l364.8-179.2 358.4 179.2-361.6 179.2L153.6 643.2z m364.8-768c-6.4 0-9.6 0-16 3.2L67.2 96c-16 9.6-22.4 28.8-16 44.8 6.4 16 25.6 22.4 44.8 16l422.4-211.2 422.4 211.2c16 6.4 35.2 0 44.8-16 9.6-16 0-38.4-16-44.8l-435.2-217.6c-6.4-3.2-12.8-3.2-16-3.2z m435.2 227.2c-19.2 0-32 16-32 35.2V636.8c0 19.2 16 32 32 32 19.2 0 32-16 32-32v-499.2c0-19.2-16-35.2-32-35.2z m-883.2-3.2c-19.2 0-32 16-32 35.2V636.8c0 19.2 16 35.2 32 35.2 19.2 0 32-16 32-35.2v-505.6c3.2-19.2-12.8-32-32-32zM544 422.4l6.4-505.6h-67.2L480 422.4h64z"  horiz-adv-x="1024" />

    
    <glyph glyph-name="date" unicode="&#59093;" d="M380.8 732.8H640v64h-259.2v-64z m384 0h124.8c16 0 32-12.8 32-32V-32c0-19.2-12.8-32-32-32H134.4c-16 0-32 12.8-32 32V700.8c0 19.2 12.8 32 32 32h128v64h-128C83.2 796.8 41.6 755.2 41.6 704v-732.8c0-51.2 41.6-92.8 92.8-92.8h758.4c51.2 0 92.8 41.6 92.8 92.8V700.8c0 51.2-41.6 92.8-92.8 92.8H768c-3.2 3.2-3.2-60.8-3.2-60.8zM288 860.8c0 16 12.8 32 32 32 16 0 32-12.8 32-32v-192c0-16-12.8-32-32-32-16 0-32 12.8-32 32v192z m384 0c0 16 12.8 28.8 32 28.8s32-12.8 32-28.8v-192c0-16-12.8-32-32-28.8-16 0-32 12.8-32 28.8v192zM224 448c0 16 12.8 32 32 32h512c16 0 32-12.8 32-32 0-16-12.8-32-32-32H256c-16 0-32 16-32 32z m0-252.8c0 16 12.8 32 32 32h512c16 0 32-12.8 32-32 0-16-12.8-32-32-32H256c-16 0-32 12.8-32 32 0-3.2 0-3.2 0 0z"  horiz-adv-x="1024" />

    
    <glyph glyph-name="tier" unicode="&#59094;" d="M667.904 892.192H241.952A137.28 137.28 0 0 1 104.96 755.008v-742.048a137.248 137.248 0 0 1 136.992-137.152h540.096c75.52 0 136.96 61.568 136.96 137.152V611.136L667.904 892.192z m20.16-258.464V759.936l112.8-126.176h-112.8z m-510.08 121.28c0 35.328 28.736 64.032 63.968 64.032H615.04v-258.496h230.976v-547.616a64.064 64.064 0 0 0-63.936-64.032H241.952a64.096 64.096 0 0 0-63.968 64.032V755.008z"  horiz-adv-x="1024" />

    
    <glyph glyph-name="man" unicode="&#59095;" d="M946.368-127.68a33.696 33.696 0 0 0-33.568 33.696c0 207.488-179.808 376.448-400.832 376.448-3.168 0-6.272 0-9.472-0.064a28.896 28.896 0 0 0-7.488-0.864c-3.072 0-6.112 0.064-9.216 0.128-210.08-12.864-374.592-177.728-374.592-375.68 0-18.56-15.072-33.696-33.6-33.696s-33.632 15.136-33.632 33.696c0 96.32 32.128 188.064 93.024 265.184 53.6 67.936 127.84 120.672 211.072 150.368-91.52 54.24-147.392 155.36-147.392 269.856 0 167.776 138.624 304.256 308.992 304.256 170.4 0 308.96-136.48 308.96-304.256 0-79.616-31.072-154.88-87.424-212.032a33.568 33.568 0 1 0-47.808 47.232 233.12 233.12 0 0 1 68 164.736c0 130.688-108.384 237.024-241.728 237.024-133.312 0-241.728-106.336-241.728-237.024 0-132.8 93.248-236.96 216.96-242.464 8.96 0.512 18.112 0.736 27.136 0.736 258.048 0 468-199.072 468-443.68a33.728 33.728 0 0 0-33.664-33.6z"  horiz-adv-x="1024" />

    
    <glyph glyph-name="repair" unicode="&#59096;" d="M851.2 579.2c0 131.2-76.8 246.4-185.6 304l-19.2 9.6c-16 6.4-35.2-6.4-35.2-22.4V640c0-16-12.8-28.8-25.6-25.6h-144c-16 0-28.8 12.8-25.6 25.6V867.2c0 19.2-19.2 32-35.2 22.4l-19.2-9.6C249.6 825.6 172.8 713.6 172.8 579.2c0-131.2 76.8-246.4 185.6-304V22.4c0-83.2 67.2-150.4 150.4-150.4h6.4c83.2 0 150.4 67.2 150.4 150.4v243.2 9.6c108.8 57.6 185.6 172.8 185.6 304zM630.4 320c-19.2-9.6-28.8-25.6-22.4-44.8 0-6.4 3.2-9.6 3.2-16v-236.8c0-54.4-41.6-96-96-96s-96 41.6-96 96v236.8c0 6.4 0 9.6 3.2 16 3.2 19.2-6.4 38.4-22.4 44.8-99.2 44.8-166.4 144-166.4 259.2C233.6 681.6 288 768 364.8 819.2v-182.4c0-44.8 35.2-80 80-80h144c44.8 0 80 35.2 80 80V819.2C748.8 768 800 678.4 800 579.2c-3.2-115.2-70.4-214.4-169.6-259.2z"  horiz-adv-x="1024" />

    
    <glyph glyph-name="many" unicode="&#59097;" d="M727.552 329.888a257.44 257.44 0 0 1 142.496 230.624c0 119.456-81.824 222.432-195.872 250.08a30.848 30.848 0 1 1-15.136-59.84l0.672-0.192c86.688-20.992 148.768-99.296 148.768-190.08a195.68 195.68 0 0 0-108.32-175.328 30.912 30.912 0 0 1-13.856-41.344 30.72 30.72 0 0 1 41.248-13.92zM1024.512-19.136c0 192.928-134.816 358.112-320.416 397.664a30.816 30.816 0 0 1-36.48-23.808 31.04 31.04 0 0 1 23.68-36.672c157.312-33.44 271.744-173.632 271.744-337.248a30.72 30.72 0 1 1 61.472 0.064zM400.608 317.44c-141.408 0-256.096 115.2-256.096 257.312C144.512 716.8 259.2 832 400.608 832c141.44 0 256.064-115.2 256.064-257.28s-114.624-257.28-256.064-257.28z m0 61.76c107.52 0 194.656 87.552 194.656 195.52 0 108-87.168 195.52-194.656 195.52-107.456 0-194.624-87.52-194.624-195.52 0.032-107.968 87.168-195.52 194.624-195.52zM810.4-27.328c0 224.576-181.152 406.528-404.64 406.528S1.088 197.248 1.088-27.328c0-17.024 13.76-30.88 30.72-30.88s30.72 13.856 30.72 30.88c0 190.432 153.632 344.704 343.2 344.704 189.504 0 343.2-154.272 343.2-344.704 0-17.024 13.76-30.88 30.688-30.88a30.848 30.848 0 0 1 30.784 30.88z"  horiz-adv-x="1024" />

    
    <glyph glyph-name="return" unicode="&#59098;" d="M848.015829-128h-182.64721c-36.638237 0-66.204814 28.926608-66.204814 64.636889v313.296923h-181.975242v-311.345017c0-35.678283-28.638622-66.556797-65.180863-66.556797H173.968268c-36.510243 0-67.132769 30.878514-67.132769 66.556797V370.727999H65.781474a59.613131 59.613131 0 0 0-60.221102 38.750135 63.548942 63.548942 0 0 0 13.919331 70.42861L469.474047 877.839594a67.292762 67.292762 0 0 0 91.931575 0l443.402662-396.652911a63.484945 63.484945 0 0 0-0.927956-91.355604 66.876782 66.876782 0 0 0-46.013785-18.463111h-45.629804v-436.682985c-1.087948-34.174355-29.214594-61.693031-64.22091-62.684983zM419.844435 309.962923h183.959147c36.57424 0 66.140817-28.894609 66.140817-64.572892v-313.36092h180.023336V430.789108h111.834618L515.807817 831.313833 65.781474 433.380984h110.522681v-501.319874h183.319178v310.737045c-1.567925 34.526338 24.990797 64.124914 60.221102 67.164768z"  horiz-adv-x="1024" />

    
    <glyph glyph-name="operation" unicode="&#59099;" d="M940.8 345.6c-22.4 0-35.2-19.2-35.2-38.4v-310.4H121.6V771.2h320c22.4-3.2 35.2 9.6 35.2 32 3.2 22.4-12.8 35.2-35.2 38.4h-352c-22.4 0-38.4-16-38.4-38.4v-841.6c0-22.4 16-38.4 38.4-38.4h841.6c22.4 0 38.4 16 38.4 38.4V307.2c3.2 22.4-6.4 38.4-28.8 38.4zM281.6 211.2l57.6-57.6c22.4-22.4 57.6-19.2 80 6.4l217.6 217.6c86.4-35.2 192-19.2 262.4 54.4 73.6 73.6 89.6 182.4 48 272-9.6 22.4-41.6 28.8-60.8 9.6l-96-96-41.6 41.6 99.2 99.2c19.2 19.2 12.8 48-9.6 60.8-89.6 44.8-204.8 28.8-278.4-44.8-70.4-70.4-89.6-176-54.4-262.4L288 294.4c-25.6-25.6-25.6-60.8-6.4-83.2z m44.8 44.8l204.8 204.8 38.4 38.4c-9.6 16-19.2 35.2-22.4 54.4-16 60.8 3.2 128 51.2 179.2 54.4 54.4 131.2 67.2 195.2 44.8l-83.2-83.2c-22.4-22.4-22.4-54.4 0-76.8l38.4-38.4c22.4-22.4 54.4-22.4 76.8 0l83.2 83.2c22.4-67.2 9.6-144-44.8-195.2-51.2-51.2-121.6-67.2-185.6-48-19.2 6.4-35.2 12.8-51.2 25.6l-38.4-38.4-204.8-208-57.6 57.6z"  horiz-adv-x="1024" />

    
    <glyph glyph-name="home" unicode="&#59100;" d="M816-128h-150.4c-35.2 0-67.2 28.8-67.2 64v313.6H416v-310.4c0-35.2-28.8-67.2-64-67.2H204.8c-35.2 0-67.2 32-67.2 67.2V371.2H67.2c-25.6-3.2-51.2 12.8-60.8 38.4-9.6 22.4-6.4 51.2 12.8 70.4L470.4 876.8c25.6 25.6 67.2 25.6 92.8 0L1004.8 480c25.6-25.6 25.6-67.2 0-92.8-12.8-12.8-28.8-19.2-44.8-19.2h-76.8V-64c-3.2-35.2-32-64-67.2-64z"  horiz-adv-x="1024" />

    
    <glyph glyph-name="data" unicode="&#59087;" d="M800 44.8V632h-72v-587.2H547.2V795.2h-70.4v-750.4H296V483.2H224v-438.4H67.2v-72h889.6v72z"  horiz-adv-x="1024" />

    
    <glyph glyph-name="left" unicode="&#59101;" d="M777.6 784c-12.8 16-32 16-44.8 6.4 0 0-480-374.4-483.2-377.6-16-22.4-12.8-51.2 6.4-67.2l476.8-371.2c6.4-3.2 12.8-6.4 19.2-6.4 16 0 32 16 32 32V764.8c0 9.6 0 16-6.4 19.2z"  horiz-adv-x="1024" />

    
    <glyph glyph-name="up" unicode="&#59102;" d="M912 118.4c16 12.8 16 32 6.4 44.8L547.2 640l-6.4 6.4c-22.4 16-51.2 12.8-67.2-6.4L102.4 163.2c-3.2-6.4-6.4-12.8-6.4-19.2 0-16 16-32 32-32h764.8c9.6 0 16 0 19.2 6.4z"  horiz-adv-x="1024" />

    
    <glyph glyph-name="right" unicode="&#59103;" d="M246.4-16c12.8-16 32-16 44.8-6.4L768 348.8c3.2 0 6.4 3.2 6.4 6.4 16 22.4 12.8 51.2-6.4 67.2L291.2 793.6c-6.4 3.2-12.8 6.4-19.2 6.4-16 0-32-16-32-32v-764.8c0-9.6 0-16 6.4-19.2z"  horiz-adv-x="1024" />

    
    <glyph glyph-name="down" unicode="&#59104;" d="M108.8 649.6c-16-12.8-16-32-6.4-44.8L473.6 128c0-3.2 3.2-3.2 6.4-6.4 22.4-16 51.2-12.8 67.2 6.4L918.4 604.8c3.2 6.4 6.4 12.8 6.4 19.2 0 16-16 32-32 32H128c-9.6 0-16 0-19.2-6.4z"  horiz-adv-x="1024" />

    
    <glyph glyph-name="develop" unicode="&#59105;" d="M779.2 419.2c19.2-19.2 19.2-51.2 0-70.4-19.2-19.2-51.2-19.2-70.4 0l-464 460.8c-19.2 19.2-19.2 51.2 0 70.4 19.2 19.2 51.2 19.2 72 0l462.4-460.8zM316.8-113.6c-19.2-19.2-51.2-19.2-70.4 0-19.2 19.2-19.2 51.2 0 70.4l462.4 460.8c19.2 19.2 51.2 19.2 70.4 0 19.2-19.2 19.2-51.2 0-70.4L316.8-113.6z"  horiz-adv-x="1024" />

    
    <glyph glyph-name="rest" unicode="&#59106;" d="M244.8 348.8c-19.2 19.2-19.2 51.2 0 70.4 19.2 19.2 51.2 19.2 70.4 0l462.4-462.4c19.2-19.2 19.2-51.2 0-70.4-19.2-19.2-51.2-19.2-72 0L244.8 348.8zM707.2 881.6c19.2 19.2 51.2 19.2 70.4 0 19.2-19.2 19.2-51.2 0-70.4L316.8 348.8c-19.2-19.2-51.2-19.2-70.4 0-19.2 19.2-19.2 51.2 0 70.4L707.2 881.6z"  horiz-adv-x="1024" />

    
    <glyph glyph-name="Loading" unicode="&#59107;" d="M512 612.8c-32 0-57.6 25.6-57.6 57.6V838.4C454.4 870.4 480 896 512 896s57.6-25.6 57.6-57.6v-168c0-32-25.6-57.6-57.6-57.6zM512-128c-20.8 0-36.8 16-36.8 36.8V118.4c0 20.8 16 36.8 36.8 36.8 20.8 0 36.8-16 36.8-36.8v-209.6c1.6-19.2-16-36.8-36.8-36.8z m-142.4 700.8c-19.2 0-38.4 9.6-48 28.8l-88 148.8c-16 27.2-6.4 60.8 20.8 76.8 27.2 16 60.8 6.4 76.8-20.8l88-150.4c16-27.2 6.4-60.8-20.8-76.8-9.6-3.2-19.2-6.4-28.8-6.4zM750.4-64c-11.2 0-22.4 6.4-28.8 16l-105.6 185.6c-9.6 16-3.2 36.8 12.8 46.4 16 9.6 36.8 3.2 46.4-12.8l105.6-185.6c9.6-16 3.2-36.8-12.8-46.4-6.4-1.6-12.8-3.2-17.6-3.2zM268.8 470.4c-9.6 0-17.6 1.6-25.6 6.4l-155.2 89.6c-25.6 14.4-33.6 46.4-19.2 72 14.4 25.6 46.4 33.6 72 19.2l155.2-89.6c25.6-14.4 33.6-46.4 19.2-72-9.6-16-27.2-25.6-46.4-25.6zM929.6 112c-4.8 0-9.6 1.6-14.4 3.2l-193.6 112c-14.4 8-19.2 27.2-11.2 40 8 14.4 27.2 19.2 40 11.2l193.6-112c14.4-8 19.2-27.2 11.2-41.6-6.4-6.4-16-12.8-25.6-12.8zM235.2 334.4H48c-27.2 0-48 22.4-48 48s22.4 48 48 48h187.2c27.2 0 48-22.4 48-48s-20.8-48-48-48z m758.4 19.2h-224c-16 0-30.4 12.8-30.4 30.4 0 16 12.8 30.4 30.4 30.4h224c16 0 30.4-12.8 30.4-30.4 0-17.6-12.8-30.4-30.4-30.4zM108.8 107.2c-16 0-30.4 8-38.4 22.4-12.8 20.8-4.8 49.6 16 60.8l169.6 96c20.8 12.8 48 4.8 60.8-16 12.8-20.8 4.8-49.6-16-60.8L131.2 112c-8-3.2-16-4.8-22.4-4.8zM736 481.6c-9.6 0-20.8 4.8-25.6 14.4-8 14.4-3.2 32 11.2 40l193.6 112c14.4 8 32 3.2 41.6-11.2 8-14.4 3.2-32-11.2-41.6l-193.6-112c-4.8 0-9.6-1.6-16-1.6zM278.4-64c-6.4 0-14.4 1.6-20.8 4.8-19.2 11.2-25.6 36.8-14.4 56l99.2 172.8c11.2 19.2 36.8 25.6 56 14.4 19.2-11.2 25.6-36.8 14.4-56l-99.2-172.8c-8-12.8-20.8-19.2-35.2-19.2z m363.2 641.6c-4.8 0-9.6 1.6-14.4 3.2-14.4 8-19.2 27.2-11.2 41.6l110.4 192c9.6 14.4 27.2 19.2 41.6 11.2 14.4-8 19.2-27.2 11.2-40l-110.4-192c-6.4-11.2-16-16-27.2-16z"  horiz-adv-x="1024" />

    
    <glyph glyph-name="close" unicode="&#59108;" d="M568 384l316.8 316.8c16 16 16 41.6 0 56s-41.6 16-56 0L512 440 195.2 756.8c-16 16-41.6 16-56 0s-16-41.6 0-56L456 384 139.2 67.2c-16-16-16-41.6 0-56s41.6-16 56 0L512 328l316.8-316.8c16-16 41.6-16 56 0s16 41.6 0 56L568 384z"  horiz-adv-x="1024" />

    
    <glyph glyph-name="fullextent" unicode="&#59111;" d="M764.8 822.4H896l-224-224c-14.4-14.4-14.4-36.8 0-51.2s36.8-14.4 51.2 0l224 224V640c0-20.8 16-36.8 36.8-36.8 9.6 0 19.2 3.2 25.6 11.2 6.4 6.4 11.2 16 11.2 25.6V859.2c0 4.8-1.6 9.6-3.2 14.4 0 1.6-1.6 3.2-1.6 1.6-1.6 3.2-3.2 6.4-6.4 9.6s-6.4 4.8-8 6.4l-3.2 1.6c-3.2 1.6-8 3.2-12.8 3.2H764.8c-9.6 0-19.2-3.2-25.6-11.2-6.4-6.4-11.2-16-11.2-25.6 0-20.8 16-36.8 36.8-36.8zM352 598.4L128 822.4h131.2c20.8 0 36.8 16 36.8 36.8 0 19.2-17.6 36.8-36.8 36.8H38.4c-3.2 0-8-1.6-12.8-3.2h-1.6l-1.6-1.6C19.2 889.6 16 888 12.8 884.8s-4.8-6.4-6.4-8l-1.6-3.2c-1.6-4.8-3.2-9.6-3.2-14.4v-220.8c0-9.6 3.2-19.2 11.2-25.6 6.4-6.4 16-11.2 25.6-11.2 20.8 0 36.8 16 36.8 36.8V769.6l224-224c14.4-14.4 36.8-14.4 51.2 0s16 38.4 1.6 52.8zM259.2-54.4H128l224 224c14.4 14.4 14.4 36.8 0 51.2s-36.8 14.4-51.2 0l-224-224V128c0 20.8-16 36.8-36.8 36.8-9.6 0-19.2-3.2-25.6-11.2-6.4-6.4-11.2-16-11.2-25.6v-220.8c0-4.8 1.6-9.6 3.2-14.4 0-1.6 1.6-3.2 1.6-1.6 1.6-3.2 3.2-6.4 6.4-9.6 3.2-3.2 6.4-4.8 8-6.4l3.2-1.6c3.2 0 8-1.6 12.8-1.6h220.8c20.8 0 36.8 16 36.8 36.8s-16 36.8-36.8 36.8zM1011.2-116.8c3.2 3.2 4.8 6.4 6.4 8l3.2 4.8c1.6 3.2 1.6 8 1.6 11.2V128c0 19.2-17.6 36.8-36.8 36.8-20.8 0-36.8-16-36.8-36.8v-131.2l-224 224c-14.4 14.4-36.8 14.4-51.2 0s-14.4-36.8 0-51.2l224-224h-131.2c-20.8 0-36.8-16-36.8-36.8 0-9.6 4.8-19.2 11.2-25.6 6.4-6.4 16-11.2 25.6-11.2h220.8c4.8 0 8 0 12.8 1.6l1.6 1.6c1.6 0 3.2 1.6 1.6 1.6 1.6 1.6 4.8 3.2 8 6.4z"  horiz-adv-x="1024" />

    
    <glyph glyph-name="one" unicode="&#59115;" d="M897.504-128H126.496A126.624 126.624 0 0 0 0-1.504V769.504A126.624 126.624 0 0 0 126.496 896h771.008A126.624 126.624 0 0 0 1024 769.504v-771.008A126.624 126.624 0 0 0 897.504-128zM126.496 835.776c-36.544 0-66.24-29.728-66.24-66.272v-771.008c0-36.576 29.728-66.24 66.24-66.24h771.008a66.24 66.24 0 0 1 66.24 66.24V769.504a66.304 66.304 0 0 1-66.24 66.272H126.496z"  horiz-adv-x="1024" />

    
    <glyph glyph-name="two" unicode="&#59116;" d="M321.504-128H126.496A126.624 126.624 0 0 0 0-1.504V769.504A126.624 126.624 0 0 0 126.496 896h195.008A126.624 126.624 0 0 0 448 769.504v-771.008A126.624 126.624 0 0 0 321.504-128zM126.496 835.776c-36.544 0-66.24-29.728-66.24-66.272v-771.008c0-36.576 29.728-66.24 66.24-66.24h195.008a66.24 66.24 0 0 1 66.24 66.24V769.504a66.304 66.304 0 0 1-66.24 66.272H126.496zM897.504-128h-195.008A126.624 126.624 0 0 0 576-1.504V769.504A126.624 126.624 0 0 0 702.496 896h195.008A126.624 126.624 0 0 0 1024 769.504v-771.008A126.624 126.624 0 0 0 897.504-128zM702.496 835.776c-36.544 0-66.24-29.728-66.24-66.272v-771.008c0-36.576 29.728-66.24 66.24-66.24h195.008a66.24 66.24 0 0 1 66.24 66.24V769.504a66.304 66.304 0 0 1-66.24 66.272h-195.008z"  horiz-adv-x="1024" />

    
    <glyph glyph-name="four-one" unicode="&#59117;" d="M321.504 448H126.496A126.624 126.624 0 0 0 0 574.496V769.504A126.624 126.624 0 0 0 126.496 896h195.008A126.624 126.624 0 0 0 448 769.504v-195.008A126.624 126.624 0 0 0 321.504 448zM126.496 835.776c-36.544 0-66.24-29.728-66.24-66.272v-195.008c0-36.576 29.728-66.24 66.24-66.24h195.008a66.24 66.24 0 0 1 66.24 66.24V769.504a66.304 66.304 0 0 1-66.24 66.272H126.496zM897.504 448h-195.008A126.624 126.624 0 0 0 576 574.496V769.504A126.624 126.624 0 0 0 702.496 896h195.008A126.624 126.624 0 0 0 1024 769.504v-195.008A126.624 126.624 0 0 0 897.504 448zM702.496 835.776c-36.544 0-66.24-29.728-66.24-66.272v-195.008c0-36.576 29.728-66.24 66.24-66.24h195.008a66.24 66.24 0 0 1 66.24 66.24V769.504a66.304 66.304 0 0 1-66.24 66.272h-195.008zM321.504-128H126.496A126.624 126.624 0 0 0 0-1.504v195.008A126.624 126.624 0 0 0 126.496 320h195.008A126.624 126.624 0 0 0 448 193.504v-195.008A126.624 126.624 0 0 0 321.504-128zM126.496 259.744c-36.544 0-66.24-29.696-66.24-66.24v-195.008c0-36.576 29.728-66.24 66.24-66.24h195.008a66.24 66.24 0 0 1 66.24 66.24v195.008a66.24 66.24 0 0 1-66.24 66.24H126.496zM897.504-128h-195.008A126.624 126.624 0 0 0 576-1.504v195.008A126.624 126.624 0 0 0 702.496 320h195.008A126.624 126.624 0 0 0 1024 193.504v-195.008A126.624 126.624 0 0 0 897.504-128z m-195.008 387.744c-36.544 0-66.24-29.696-66.24-66.24v-195.008c0-36.576 29.728-66.24 66.24-66.24h195.008a66.24 66.24 0 0 1 66.24 66.24v195.008a66.24 66.24 0 0 1-66.24 66.24h-195.008z"  horiz-adv-x="1024" />

    
    <glyph glyph-name="three" unicode="&#59118;" d="M321.408-128H126.432a126.624 126.624 0 0 0-126.496 126.496V769.504A126.592 126.592 0 0 0 126.432 896h195.008a126.624 126.624 0 0 0 126.496-126.496v-771.008A126.688 126.688 0 0 0 321.408-128zM126.432 835.776c-36.544 0-66.24-29.728-66.24-66.272v-771.008c0-36.576 29.728-66.24 66.24-66.24h195.008a66.24 66.24 0 0 1 66.24 66.24V769.504a66.304 66.304 0 0 1-66.24 66.272H126.432zM897.408 448h-195.008a126.624 126.624 0 0 0-126.496 126.496V769.504A126.624 126.624 0 0 0 702.4 896h195.008a126.624 126.624 0 0 0 126.496-126.496v-195.008A126.624 126.624 0 0 0 897.408 448zM702.432 835.776c-36.544 0-66.24-29.728-66.24-66.272v-195.008c0-36.576 29.728-66.24 66.24-66.24h195.008a66.24 66.24 0 0 1 66.24 66.24V769.504a66.304 66.304 0 0 1-66.24 66.272h-195.008zM898.432-128h-195.008a126.624 126.624 0 0 0-126.496 126.496v195.008A126.624 126.624 0 0 0 703.424 320h195.008a126.624 126.624 0 0 0 126.496-126.496v-195.008A126.656 126.656 0 0 0 898.432-128z m-195.008 387.776c-36.544 0-66.24-29.728-66.24-66.272v-195.008c0-36.576 29.728-66.24 66.24-66.24h195.008a66.24 66.24 0 0 1 66.24 66.24v195.008a66.304 66.304 0 0 1-66.24 66.272h-195.008z"  horiz-adv-x="1024" />

    
    <glyph glyph-name="four" unicode="&#59119;" d="M323.2-128H128c-70.4 0-128 57.6-128 128V768c0 70.4 57.6 128 128 128H323.2c70.4 0 128-57.6 128-128v-768c0-70.4-57.6-128-128-128zM128 835.2c-35.2 0-64-28.8-64-67.2v-768c0-35.2 28.8-67.2 67.2-67.2h192c35.2 0 67.2 28.8 67.2 67.2V768c0 35.2-28.8 67.2-67.2 67.2H128zM899.2 608h-195.2c-70.4 0-128 57.6-128 128V768c0 70.4 57.6 128 128 128H899.2c70.4 0 128-57.6 128-128v-32c0-70.4-57.6-128-128-128z m-195.2 227.2c-35.2 0-67.2-28.8-67.2-67.2v-32c0-35.2 28.8-67.2 67.2-67.2H899.2c35.2 0 67.2 28.8 67.2 67.2V768c0 35.2-28.8 67.2-67.2 67.2h-195.2zM899.2 240h-195.2c-70.4 0-128 57.6-128 128v35.2c0 70.4 57.6 128 128 128H899.2c70.4 0 128-57.6 128-128v-35.2c0-70.4-57.6-128-128-128z m-195.2 227.2c-35.2 0-67.2-28.8-67.2-67.2v-35.2c0-35.2 28.8-67.2 67.2-67.2H899.2c35.2 0 67.2 28.8 67.2 67.2v35.2c0 35.2-28.8 67.2-67.2 67.2h-195.2zM899.2-128h-195.2c-70.4 0-128 57.6-128 128v32c0 70.4 57.6 128 128 128H899.2c70.4 0 128-57.6 128-128v-32c0-70.4-57.6-128-128-128z m-195.2 227.2c-35.2 0-67.2-28.8-67.2-67.2v-32c0-35.2 28.8-67.2 67.2-67.2H899.2c35.2 0 67.2 28.8 67.2 67.2v32c0 35.2-28.8 67.2-67.2 67.2h-195.2z"  horiz-adv-x="1027" />

    
    <glyph glyph-name="five" unicode="&#59120;" d="M518.496 448H126.496A126.624 126.624 0 0 0 0 574.496V769.504A126.624 126.624 0 0 0 126.496 896h392a126.624 126.624 0 0 0 126.496-126.496v-195.008A126.624 126.624 0 0 0 518.496 448zM126.496 835.776c-36.544 0-66.24-29.728-66.24-66.272v-195.008c0-36.576 29.728-66.24 66.24-66.24h392a66.24 66.24 0 0 1 66.24 66.24V769.504a66.304 66.304 0 0 1-66.24 66.272H126.496zM897.504 448h-12.992a126.624 126.624 0 0 0-126.496 126.496V769.504A126.624 126.624 0 0 0 884.512 896h12.992A126.624 126.624 0 0 0 1024 769.504v-195.008A126.624 126.624 0 0 0 897.504 448z m-12.992 387.776c-36.544 0-66.24-29.728-66.24-66.272v-195.008c0-36.576 29.728-66.24 66.24-66.24h12.992a66.24 66.24 0 0 1 66.24 66.24V769.504a66.304 66.304 0 0 1-66.24 66.272h-12.992zM139.488-128h-12.992A126.624 126.624 0 0 0 0-1.504v195.008A126.624 126.624 0 0 0 126.496 320h12.992a126.624 126.624 0 0 0 126.496-126.496v-195.008A126.592 126.592 0 0 0 139.488-128z m-12.992 387.744c-36.544 0-66.24-29.696-66.24-66.24v-195.008c0-36.576 29.728-66.24 66.24-66.24h12.992a66.24 66.24 0 0 1 66.24 66.24v195.008a66.24 66.24 0 0 1-66.24 66.24h-12.992zM518.496-128h-12.992a126.624 126.624 0 0 0-126.496 126.496v195.008A126.624 126.624 0 0 0 505.504 320h12.992a126.624 126.624 0 0 0 126.496-126.496v-195.008A126.624 126.624 0 0 0 518.496-128z m-12.992 387.744c-36.544 0-66.24-29.696-66.24-66.24v-195.008c0-36.576 29.728-66.24 66.24-66.24h12.992a66.24 66.24 0 0 1 66.24 66.24v195.008a66.24 66.24 0 0 1-66.24 66.24h-12.992zM897.504-128h-12.992a126.624 126.624 0 0 0-126.496 126.496v195.008A126.624 126.624 0 0 0 884.512 320h12.992A126.624 126.624 0 0 0 1024 193.504v-195.008A126.624 126.624 0 0 0 897.504-128z m-12.992 387.744c-36.544 0-66.24-29.696-66.24-66.24v-195.008c0-36.576 29.728-66.24 66.24-66.24h12.992a66.24 66.24 0 0 1 66.24 66.24v195.008a66.24 66.24 0 0 1-66.24 66.24h-12.992z"  horiz-adv-x="1024" />

    
    <glyph glyph-name="triangle" unicode="&#59121;" d="M1024-128H0L1024 896z"  horiz-adv-x="1024" />

    
    <glyph glyph-name="no" unicode="&#59122;" d="M401.6 0c-17.6 0-33.6 6.4-48 19.2L123.2 267.2c-25.6 25.6-25.6 68.8 0 96 25.6 25.6 68.8 25.6 94.4 0L400 164.8 804.8 750.4c25.6 25.6 68.8 25.6 94.4 0s25.6-68.8 0-96L448 19.2c-12.8-12.8-30.4-19.2-46.4-19.2z"  horiz-adv-x="1024" />

    
    <glyph glyph-name="selection" unicode="&#59123;" d="M512 896C228.8 896 0 667.2 0 384s228.8-512 512-512 512 228.8 512 512S795.2 896 512 896z m267.2-369.6l-288-355.2c-9.6-9.6-24-14.4-35.2-14.4-12.8 0-25.6 4.8-36.8 14.4l-176 184c-19.2 19.2-19.2 51.2 0 70.4 19.2 19.2 52.8 19.2 72 0l139.2-147.2 252.8 318.4c19.2 19.2 52.8 19.2 72 0 20.8-19.2 20.8-51.2 0-70.4z"  horiz-adv-x="1024" />

    
    <glyph glyph-name="pie" unicode="&#59189;" d="M563.2 896v-460.8H1024S1040 870.4 563.2 896z m-80 0C214.4 880 0 656 0 384c0-281.6 230.4-512 512-512 268.8 0 492.8 208 512 476.8-48 0-547.2 3.2-547.2 3.2l6.4 544z"  horiz-adv-x="1024" />

    
    <glyph glyph-name="tag" unicode="&#59190;" d="M300.8 252.8L73.6 384l227.2 131.2v-262.4z m425.6-249.6l224-131.2V896l-230.4-134.4 6.4-758.4z m-313.6 182.4l150.4-89.6 9.6 579.2-160-92.8v-396.8z"  horiz-adv-x="1024" />

    
    <glyph glyph-name="icon-three" unicode="&#59191;" d="M313.6 105.6H51.2c-22.4 0-38.4 9.6-48 32 0 3.2-3.2 9.6-3.2 16V844.8C0 867.2 12.8 880 25.6 889.6c6.4 3.2 16 6.4 22.4 6.4h915.2c16 0 35.2-6.4 44.8-19.2 9.6-9.6 16-16 16-32 0-211.2 6.4-537.6 0-688 0-12.8-3.2-19.2-9.6-28.8-6.4-6.4-19.2-22.4-41.6-22.4H800m176 0H224M54.4 832v-649.6c0-12.8 0-12.8 16-12.8h883.2c12.8 0 16 3.2 16 12.8V819.2c0 12.8 0 12.8-12.8 12.8H54.4zM800-96H208c-16 0-28.8 12.8-28.8 28.8v12.8c0 12.8 12.8 28.8 28.8 28.8H800c16 0 28.8-12.8 28.8-28.8v-12.8c0-16-16-28.8-28.8-28.8zM598.4 489.6c28.8 25.6 48 64 48 102.4 0 73.6-60.8 134.4-137.6 134.4-73.6 0-137.6-60.8-137.6-134.4 0-41.6 19.2-76.8 48-102.4-73.6-35.2-118.4-105.6-118.4-185.6 0-12.8 12.8-25.6 25.6-25.6s25.6 12.8 25.6 25.6c0 86.4 70.4 156.8 156.8 156.8s156.8-70.4 156.8-156.8c0-12.8 12.8-22.4 25.6-25.6 6.4 0 12.8 3.2 19.2 6.4 6.4 3.2 9.6 9.6 9.6 19.2 0 76.8-48 150.4-121.6 185.6z m-3.2 102.4a87.424 87.424 0 0 0-86.4-86.4c-48 0-83.2 38.4-83.2 83.2 0 44.8 38.4 83.2 83.2 83.2 48 3.2 86.4-35.2 86.4-80z"  horiz-adv-x="1026" />

    
    <glyph glyph-name="column" unicode="&#59192;" d="M67.2-89.6H0v134.4h1024v-134.4H67.2zM713.6 697.6h204.8v-547.2h-204.8V697.6z m-230.4-547.2h-73.6V857.6h204.8v-707.2h-131.2z m-307.2 0H102.4V560h204.8v-409.6H176z"  horiz-adv-x="1024" />

    
    <glyph glyph-name="icon-two" unicode="&#59193;" d="M25.520249 771.588785h274.342679v-38.280374c0-19.140187 15.950156-38.280374 31.900312-38.280374h121.221184c19.140187 0 31.900312 15.950156 31.900311 38.280374V771.588785h513.595016c12.760125 0 25.520249 12.760125 25.520249 25.520249s-9.570093 25.520249-25.520249 25.520249H481.694704V857.719626c0 19.140187-15.950156 38.280374-31.900311 38.280374h-121.221184c-19.140187 0-31.900312-15.950156-31.900312-38.280374v-38.280374H25.520249c-15.950156 0-25.520249-9.570093-25.520249-22.330218 0-15.950156 9.570093-25.520249 25.520249-25.520249z m315.813084 73.370717h98.890966v-98.890966h-98.890966V844.959502z m653.956387-433.844237h-242.442368V449.395639c0 19.140187-15.950156 38.280374-31.900312 38.280373h-121.221183c-19.140187 0-31.900312-15.950156-31.900312-38.280373v-38.280374H25.520249c-15.950156 0-25.520249-12.760125-25.520249-25.520249s9.570093-25.520249 25.520249-25.52025h545.495327V321.794393c0-19.140187 15.950156-38.280374 31.900312-38.280374h121.221184c19.140187 0 31.900312 15.950156 31.900311 38.280374v38.280373h242.442368c12.760125 0 25.520249 12.760125 25.520249 25.52025-3.190031 12.760125-12.760125 25.520249-28.71028 25.520249z m-283.912773-76.560748h-98.890966v98.890966h98.890966v-98.890966z m283.912773-334.953271H481.694704v38.280374c0 19.140187-15.950156 38.280374-31.900311 38.280374h-121.221184c-19.140187 0-31.900312-15.950156-31.900312-38.280374v-38.280374H25.520249c-12.760125 0-25.520249-12.760125-25.520249-25.520249s9.570093-25.520249 25.520249-25.520249h274.342679v-38.280374c0-19.140187 15.950156-38.280374 31.900312-38.280374h121.221184c19.140187 0 31.900312 15.950156 31.900311 38.280374v38.280374h513.595016c12.760125 0 25.520249 9.570093 25.520249 25.520249-3.190031 15.950156-12.760125 25.520249-28.71028 25.520249z m-555.065421-73.370716h-98.890966v98.890965h98.890966v-98.890965z"  horiz-adv-x="1027" />

    
    <glyph glyph-name="icon-one" unicode="&#59194;" d="M943.798944 435.41446c-60.771703 28.786596-131.138938 44.77915-201.506174 41.580639-70.367235 3.198511-137.53596-9.595532-201.506174-41.580639-35.183618-12.794043-57.573192-44.77915-63.970214-79.962767v-361.431709c0-28.786596 22.389575-57.573192 63.970214-79.962767 60.771703-28.786596 131.138938-44.77915 201.506174-41.580639 70.367235-3.198511 137.53596 9.595532 198.307663 41.580639 41.580639 22.389575 63.970214 51.176171 63.970214 79.962767V355.451693c-3.198511 35.183618-25.588086 67.168725-60.771703 79.962767z m-201.506174-3.198511c134.337449 0 217.498727-44.77915 217.498727-76.764256s-83.161278-76.764257-217.498727-76.764257c-134.337449 0-217.498727 44.77915-217.498727 76.764257s83.161278 76.764257 217.498727 76.764256z m-217.498727-150.330002l19.191064-9.595532c60.771703-28.786596 127.940428-41.580639 198.307663-38.382129 67.168725-3.198511 134.337449 9.595532 198.307663 38.382129l19.191064 9.595532v-108.749364c0-31.985107-83.161278-76.764257-217.498727-76.764256h-12.794043c-127.940428 3.198511-204.704684 47.97766-204.704684 76.764256v108.749364z m434.997454-287.865963c0-31.985107-83.161278-76.764257-217.498727-76.764256-134.337449 0-217.498727 44.77915-217.498727 76.764256v108.749364l19.191064-9.595532c60.771703-28.786596 127.940428-41.580639 198.307663-38.382128 67.168725-3.198511 134.337449 9.595532 198.307663 38.382128l19.191064 9.595532v-108.749364zM83.399567 617.72957c73.565746-47.97766 198.307663-76.764257 329.446602-76.764257 131.138938 0 259.079366 28.786596 329.446601 76.764257l25.588085 12.794042v-105.550852h44.77915v191.910641c0 63.970214-67.168725 105.550853-121.543406 127.940428C601.558299 880.007447 508.801489 896 416.044679 896c-95.955321 0-188.712131-15.992553-275.071919-47.97766-57.573192-22.389575-121.543406-63.970214-121.543407-127.940428v-562.937882c0-63.970214 67.168725-105.550853 121.543407-127.940428 83.161278-31.985107 172.719577-47.97766 262.277876-47.97766v44.779149c-79.962767 0-163.124045 12.794043-239.888302 41.580639-63.970214 25.588086-99.153831 57.573192-99.153831 92.756811v191.910641l22.389575-12.794043c70.367235-44.77915 188.712131-73.565746 316.652558-76.764256v44.779149c-79.962767 0-163.124045 12.794043-239.888302 41.580639-63.970214 25.588086-99.153831 57.573192-99.153831 92.756811v191.910641l19.191064-15.992553zM64.208503 716.883401c0 35.183618 35.183618 67.168725 99.153831 89.5583 79.962767 28.786596 166.322556 44.77915 252.682345 41.580639 86.359789 0 172.719577-12.794043 252.682345-41.580639 63.970214-25.588086 99.153831-57.573192 99.153831-92.756811 0-35.183618-35.183618-63.970214-99.153831-89.558299-79.962767-28.786596-166.322556-44.77915-252.682345-44.77915s-172.719577 12.794043-252.682345 44.77915C99.392121 652.913187 64.208503 684.898294 64.208503 716.883401z"  horiz-adv-x="1024" />

    
    <glyph glyph-name="searching" unicode="&#59203;" d="M1012.305448-58.454333L818.85658 134.994536C886.004121 214.932084 927.571646 320.449649 927.571646 432.362217 927.571646 688.162373 719.734019 896 463.933863 896S0.29608 688.162373 0.29608 432.362217s207.837627-463.637783 463.637783-463.637783c113.511319 0 217.430133 41.567525 297.367681 108.715066l193.448869-193.448868c15.98751-15.98751 41.567525-15.98751 55.956284 0 15.98751 15.98751 15.98751 41.567525 1.598751 57.555035zM463.933863 50.260734C252.898734 50.260734 81.83238 221.327088 81.83238 432.362217S252.898734 814.4637 463.933863 814.4637 846.035346 643.397346 846.035346 432.362217 674.968992 50.260734 463.933863 50.260734z"  horiz-adv-x="1024" />

    
    <glyph glyph-name="icon-four" unicode="&#59226;" d="M219.2 273.6c-25.6 0-32-11.2-32-25.6 0-14.4 8-25.6 32-25.6H400c25.6 0 30.4 11.2 30.4 25.6 0 14.4-6.4 25.6-30.4 25.6H219.2zM59.2-49.6V819.2c0 14.4 11.2 27.2 25.6 27.2h784c14.4 0 25.6-11.2 25.6-27.2v-344h48V819.2c0 41.6-33.6 75.2-73.6 75.2h-784C43.2 894.4 11.2 860.8 11.2 819.2v-868.8c0-41.6 33.6-75.2 73.6-75.2h364.8v48H84.8c-14.4 1.6-25.6 12.8-25.6 27.2zM768 475.2c0 14.4-6.4 25.6-30.4 25.6H219.2c-25.6 0-32-11.2-32-25.6 0-14.4 8-25.6 32-25.6H736c25.6 0 32 11.2 32 25.6zM736 728H219.2c-25.6 0-32-11.2-32-25.6 0-14.4 8-25.6 32-25.6H736c25.6 0 30.4 11.2 30.4 25.6 1.6 12.8-4.8 25.6-30.4 25.6zM766.4 209.6c-56 0-100.8-44.8-100.8-100.8s44.8-100.8 100.8-100.8 100.8 44.8 100.8 100.8-44.8 100.8-100.8 100.8z m0-164.8c-35.2 0-62.4 27.2-62.4 62.4s28.8 62.4 62.4 62.4c16 0 32-6.4 44.8-17.6 12.8-11.2 19.2-27.2 19.2-44.8-1.6-33.6-28.8-62.4-64-62.4zM1008 153.6v3.2c-3.2 16-12.8 25.6-25.6 25.6h-1.6c-32 0-59.2 27.2-59.2 59.2 0 11.2 4.8 22.4 4.8 22.4 6.4 12.8 1.6 30.4-11.2 40H912l-60.8 33.6H848c-3.2 1.6-8 1.6-12.8 1.6-9.6 0-19.2-3.2-25.6-11.2-4.8-6.4-25.6-24-41.6-24-17.6 0-41.6 22.4-46.4 27.2-6.4 6.4-16 11.2-25.6 11.2-4.8 0-8-1.6-11.2-3.2l-64-35.2h-3.2c-12.8-8-17.6-27.2-11.2-38.4 0 0 4.8-11.2 4.8-22.4 0-16-6.4-32-17.6-43.2-11.2-11.2-25.6-17.6-41.6-17.6h-1.6c-12.8 0-22.4-11.2-25.6-27.2v-3.2c-1.6-8-4.8-28.8-4.8-46.4 0-17.6 3.2-38.4 4.8-46.4v-3.2c3.2-16 12.8-25.6 25.6-25.6 32 0 59.2-27.2 59.2-59.2 0-11.2-4.8-22.4-4.8-22.4-6.4-12.8-1.6-30.4 11.2-40h3.2l59.2-33.6h1.6c3.2-1.6 8-1.6 12.8-1.6 11.2 0 20.8 3.2 25.6 11.2 12.8 12.8 33.6 28.8 48 28.8 16 0 38.4-19.2 48-28.8 6.4-6.4 17.6-11.2 25.6-11.2 3.2 0 8 0 12.8 1.6h1.6l60.8 35.2h3.2c12.8 8 17.6 25.6 11.2 40 0 0-4.8 11.2-4.8 22.4 0 33.6 27.2 59.2 59.2 59.2h1.6c12.8 0 22.4 11.2 25.6 25.6v3.2c1.6 8 4.8 28.8 6.4 44.8-4.8 19.2-8 40-9.6 48z m-41.6-84.8v-1.6c-44.8-1.6-80-38.4-80-83.2 0-16 6.4-32 6.4-32v-4.8l-54.4-30.4h-1.6c-1.6 0-3.2 1.6-4.8 1.6l-1.6 1.6c-22.4 22.4-44.8 35.2-64 35.2-30.4 0-59.2-30.4-65.6-35.2v-1.6s-1.6-1.6-3.2-1.6h-1.6l-52.8 30.4c-3.2 0-3.2 1.6-3.2 3.2 4.8 11.2 8 22.4 8 32 0 44.8-36.8 83.2-81.6 83.2v1.6s-3.2 24-3.2 40 3.2 36.8 3.2 40v1.6c43.2 1.6 80 40 80 83.2 0 16-6.4 32-6.4 32v4.8l56 30.4h1.6s3.2 0 3.2-1.6l1.6-1.6c8-8 35.2-33.6 64-33.6 27.2 0 54.4 24 64 33.6v1.6s1.6 1.6 3.2 1.6h1.6l54.4-30.4c1.6-1.6 1.6-3.2 1.6-4.8-3.2-4.8-6.4-19.2-6.4-32 0-44.8 36.8-83.2 80-83.2v-1.6c0-3.2 3.2-24 3.2-40 3.2-14.4 0-35.2-1.6-38.4z"  horiz-adv-x="1024" />

    
    <glyph glyph-name="new-add" unicode="&#59227;" d="M907.2 334.4H561.6v-345.6h-99.2V334.4H116.8v99.2h345.6V779.2h99.2v-345.6h345.6v-99.2z"  horiz-adv-x="1024" />

    
    <glyph glyph-name="new-built" unicode="&#59228;" d="M983.263651 544.549142v-186.907956c0-9.585023-3.195008-19.170047-11.182528-25.560063s-15.975039-11.182527-25.560062-11.182527-19.170047 3.195008-25.560063 11.182527-11.182527 15.975039-11.182527 25.560063V512.599064h-239.625585c-20.767551 0-38.340094 7.98752-51.120125 20.767551s-20.767551 30.352574-20.76755 51.120124v239.625585H112.624025v-878.627145h386.595944c9.585023 0 19.170047-3.195008 25.560062-11.182527 6.390016-6.390016 11.182527-15.975039 11.182528-25.560062s-3.195008-19.170047-11.182528-25.560063c-6.390016-6.390016-15.975039-11.182527-25.560062-11.182527H112.624025c-20.767551 0-38.340094 7.98752-51.120125 20.767551s-20.767551 30.352574-20.767551 51.120125v878.627145c0 20.767551 7.98752 38.340094 20.767551 51.120124C75.881435 888.01248 91.856474 896 112.624025 896h520.786271c9.585023 0 19.170047-1.597504 28.755071-6.390016l6.390015-4.792511c4.792512-3.195008 9.585023-6.390016 14.377535-11.182528L959.301092 592.474259c15.975039-11.182527 23.962559-28.75507 23.962559-47.925117z m-11.182528-424.936037c6.390016-6.390016 11.182527-15.975039 11.182528-25.560063s-3.195008-19.170047-11.182528-25.560062-15.975039-11.182527-25.560062-11.182528h-156.555382v-146.970358c0-9.585023-3.195008-19.170047-11.182528-25.560063s-15.975039-11.182527-25.560062-11.182527-19.170047 3.195008-25.560062 11.182527-11.182527 15.975039-11.182528 25.560063v146.970358h-146.970359c-9.585023 0-19.170047 3.195008-25.560062 11.182528-6.390016 6.390016-11.182527 15.975039-11.182527 25.560062s3.195008 19.170047 11.182527 25.560063c6.390016 6.390016 15.975039 11.182527 25.560062 11.182527H719.675507v156.555382c0 9.585023 3.195008 19.170047 11.182527 25.560062s15.975039 11.182527 25.560063 11.182528 19.170047-3.195008 25.560062-11.182528 11.182527-15.975039 11.182527-25.560062V129.198128h154.957879c7.98752 0 17.572543-3.195008 23.962558-9.585023z m-100.642745 464.873634L671.75039 787.369735v-201.285492l199.687988-1.597504z"  horiz-adv-x="1024" />

    
    <glyph glyph-name="move-two" unicode="&#59233;" d="M527.98751-120.805621l342.132709 342.132709c9.592506 9.592506 9.592506 25.580016 0 35.172522l-67.147541 67.147541c-9.592506 9.592506-25.580016 9.592506-35.172522 0l-182.257611-182.257612V870.419984c0 12.790008-9.592506 25.580016-25.580016 25.580016h-95.925058c-12.790008 0-25.580016-9.592506-25.580016-25.580016v-729.030445L256.199844 323.647151c-9.592506 9.592506-25.580016 9.592506-35.172522 0L153.879781 256.49961c-3.197502-3.197502-6.395004-9.592506-6.395003-15.98751s3.197502-12.790008 6.395003-15.98751l342.132709-345.330211c9.592506-9.592506 22.382514-9.592506 31.97502 0z"  horiz-adv-x="1024" />

    
    <glyph glyph-name="move-one" unicode="&#59234;" d="M496 889.6L153.6 547.2c-9.6-9.6-9.6-25.6 0-35.2l67.2-67.2c9.6-9.6 25.6-9.6 35.2 0l182.4 182.4v-729.6c0-12.8 9.6-25.6 25.6-25.6h96c12.8 0 25.6 9.6 25.6 25.6V627.2l182.4-182.4c9.6-9.6 25.6-9.6 35.2 0l67.2 67.2c3.2 3.2 6.4 9.6 6.4 16s-3.2 12.8-6.4 16L528 889.6c-9.6 9.6-22.4 9.6-32 0z"  horiz-adv-x="1024" />

    
    <glyph glyph-name="service" unicode="&#59491;" d="M368 512h457.6v-67.2H368zM368 678.4h457.6v-67.2H368zM956.8 896H230.4c-35.2 0-64-28.8-64-67.2v-99.2H67.2c-38.4 0-67.2-28.8-67.2-64v-726.4C0-99.2 28.8-128 67.2-128h726.4c35.2 0 67.2 28.8 67.2 67.2H99.2c-19.2 0-32 16-32 32V630.4c0 19.2 16 32 32 32h67.2v-560c0-35.2 28.8-67.2 67.2-67.2H960c35.2 0 67.2 28.8 67.2 67.2V828.8C1024 867.2 995.2 896 956.8 896z m-32-793.6H265.6c-19.2 0-32 16-32 32V796.8c0 19.2 16 32 32 32h659.2c19.2 0 32-16 32-32v-659.2c0-19.2-12.8-35.2-32-35.2zM368 345.6h217.6v-67.2h-217.6z"  horiz-adv-x="1027" />

    
    <glyph glyph-name="theme" unicode="&#59492;" d="M956.8 896H67.2C28.8 896 0 867.2 0 828.8V-64c0-35.2 28.8-64 67.2-64H960c35.2 0 67.2 28.8 67.2 67.2V828.8C1024 867.2 995.2 896 956.8 896z m-32-956.8H99.2c-19.2 0-32 16-32 32V796.8c0 19.2 16 32 32 32h825.6c19.2 0 32-16 32-32v-825.6c0-19.2-12.8-32-32-32zM745.6 121.6H278.4c-19.2 0-35.2-16-35.2-35.2 0-19.2 16-35.2 35.2-35.2h464c19.2 0 35.2 16 35.2 35.2 3.2 19.2-12.8 35.2-32 35.2zM364.8 425.6l-22.4-131.2c-3.2-12.8 3.2-25.6 12.8-32 9.6-6.4 22.4-9.6 35.2-3.2l121.6 64 121.6-64c6.4-3.2 9.6-3.2 16-3.2s12.8 3.2 19.2 6.4c9.6 6.4 16 19.2 12.8 32l-22.4 131.2 99.2 92.8c9.6 9.6 12.8 22.4 9.6 35.2-3.2 12.8-16 22.4-28.8 22.4l-137.6 19.2-60.8 121.6c-3.2 9.6-16 19.2-28.8 19.2s-25.6-6.4-28.8-19.2l-60.8-121.6-137.6-19.2c-12.8-3.2-22.4-9.6-28.8-22.4-3.2-12.8 0-25.6 9.6-35.2l99.2-92.8z m83.2 105.6c9.6 0 19.2 9.6 25.6 19.2L512 627.2l38.4-76.8c6.4-9.6 16-16 25.6-19.2l83.2-12.8-60.8-57.6c-9.6-6.4-12.8-19.2-9.6-28.8l16-83.2-76.8 38.4c-9.6 6.4-22.4 6.4-32 0l-76.8-38.4 16 83.2c3.2 9.6-3.2 22.4-9.6 28.8l-60.8 57.6 83.2 12.8z"  horiz-adv-x="1027" />

    


  </font>
</defs>
</svg>
